<?xml version="1.0" encoding="utf-8"?>
<!-- Generator: Adobe Illustrator 16.0.0, SVG Export Plug-In . SVG Version: 6.00 Build 0)  -->
<!DOCTYPE svg PUBLIC "-//W3C//DTD SVG 1.1//EN" "http://www.w3.org/Graphics/SVG/1.1/DTD/svg11.dtd">
<svg version="1.1" id="Layer_1" xmlns="http://www.w3.org/2000/svg" xmlns:xlink="http://www.w3.org/1999/xlink" x="0px" y="0px"
	 width="1505.899px" height="374.841px" viewBox="0 0 1505.899 374.841" enable-background="new 0 0 1505.899 374.841"
	 xml:space="preserve">
<g>
	<path fill="#FFFFFF" d="M784.84,129.685c-148.042,30.838-282.082,41.188-395.491,41.188c-87.307,0-162.342-6.144-221.986-13.82
		C98.597,148.196,42.383,136.514,0,125.73v133.572c79.355,24.476,341.088,88.862,705.455,13.099
		c256.385-53.425,473.816-60.692,611.023-57.378c75.004,1.775,140.309,7.043,190.534,13.201V90.2
		c-39.125-5.144-101.324-11.097-182.612-12.664C1204.286,75.24,1013.219,82.445,784.84,129.685z"/>
	<path fill="#FFFFFF" d="M784.84,189.771c-148.042,30.838-282.082,41.188-395.491,41.188c-87.307,0-162.342-6.143-221.986-13.821
		C98.597,208.28,42.383,196.599,0,185.814v133.573c79.355,24.475,341.088,88.86,705.455,13.1
		c256.385-53.426,473.816-60.693,611.023-57.379c75.004,1.775,140.309,7.042,190.534,13.2V150.284
		c-39.125-5.143-101.324-11.097-182.612-12.663C1204.286,135.324,1013.219,142.53,784.84,189.771z"/>
	<path fill="#FFFFFF" d="M784.84,57.568C636.798,88.406,502.758,98.757,389.349,98.757c-87.307,0-162.342-6.144-221.986-13.82
		C98.597,76.08,42.383,64.397,0,53.613v133.574c79.355,24.476,341.088,88.859,705.455,13.099
		c256.385-53.425,473.816-60.692,611.023-57.38c75.004,1.777,140.309,7.046,190.534,13.201V18.083
		C1467.888,12.94,1405.688,6.987,1324.4,5.419C1204.286,3.122,1013.219,10.329,784.84,57.568z"/>
</g>
</svg>
