<?xml version="1.0" encoding="utf-8"?>
<!-- Generator: Adobe Illustrator 16.0.0, SVG Export Plug-In . SVG Version: 6.00 Build 0)  -->
<!DOCTYPE svg PUBLIC "-//W3C//DTD SVG 1.1//EN" "http://www.w3.org/Graphics/SVG/1.1/DTD/svg11.dtd">
<svg version="1.1" id="Layer_1" xmlns="http://www.w3.org/2000/svg" xmlns:xlink="http://www.w3.org/1999/xlink" x="0px" y="0px"
	 width="1609.796px" height="2175.021px" viewBox="0 0 1609.796 2175.021" enable-background="new 0 0 1609.796 2175.021"
	 xml:space="preserve">
<g>
	<path fill="#FFFFFF" d="M837.273,194.808c-157.838,32.878-300.748,43.915-421.661,43.915c-93.083,0-173.084-6.55-236.675-14.735
		c-73.316-9.442-133.25-21.899-178.437-33.396v142.411c84.606,26.096,363.657,94.74,752.137,13.966
		c273.349-56.962,505.167-64.709,651.453-61.176c79.968,1.894,149.593,7.51,203.143,14.075V152.71
		c-41.712-5.483-108.03-11.831-194.696-13.502C1284.474,136.76,1080.766,144.443,837.273,194.808z"/>
	<path fill="#FFFFFF" d="M837.273,317.824c-157.838,32.877-300.748,43.914-421.661,43.914c-93.083,0-173.084-6.551-236.675-14.734
		c-73.316-9.443-133.25-21.901-178.437-33.396v142.409c84.606,26.098,363.657,94.741,752.137,13.968
		c273.349-56.962,505.167-64.709,651.453-61.177c79.968,1.895,149.593,7.511,203.143,14.076V275.726
		c-41.712-5.484-108.03-11.831-194.696-13.5C1284.474,259.776,1080.766,267.459,837.273,317.824z"/>
	<path fill="#FFFFFF" d="M837.273,423.267c-157.838,32.876-300.748,43.913-421.661,43.913c-93.083,0-173.084-6.549-236.675-14.733
		C105.621,443.002,45.688,430.545,0.5,419.05v142.41c84.606,26.096,363.657,94.741,752.137,13.966
		c273.349-56.962,505.167-64.708,651.453-61.176c79.968,1.894,149.593,7.51,203.143,14.075V381.168
		c-41.712-5.484-108.03-11.832-194.696-13.5C1284.474,365.218,1080.766,372.901,837.273,423.267z"/>
	<path fill="#FFFFFF" d="M837.273,528.708c-157.838,32.877-300.748,43.914-421.661,43.914c-93.083,0-173.084-6.551-236.675-14.734
		c-73.316-9.444-133.25-21.901-178.437-33.396v142.41c84.606,26.096,363.657,94.741,752.137,13.967
		c273.349-56.961,505.167-64.709,651.453-61.176c79.968,1.893,149.593,7.508,203.143,14.075V486.61
		c-41.712-5.484-108.03-11.833-194.696-13.501C1284.474,470.659,1080.766,478.343,837.273,528.708z"/>
	<path fill="#FFFFFF" d="M837.273,634.148c-157.838,32.879-300.748,43.916-421.661,43.916c-93.083,0-173.084-6.552-236.675-14.736
		C105.621,653.886,45.688,641.43,0.5,629.932v142.412c84.606,26.096,363.657,94.739,752.137,13.967
		c273.349-56.962,505.167-64.71,651.453-61.177c79.968,1.893,149.593,7.509,203.143,14.075V592.052
		c-41.712-5.484-108.03-11.832-194.696-13.502C1284.474,576.102,1080.766,583.785,837.273,634.148z"/>
	<path fill="#FFFFFF" d="M837.273,739.591c-157.838,32.878-300.748,43.916-421.661,43.916c-93.083,0-173.084-6.552-236.675-14.736
		c-73.316-9.443-133.25-21.899-178.437-33.396v142.411c84.606,26.096,363.657,94.74,752.137,13.968
		c273.349-56.962,505.167-64.71,651.453-61.177c79.968,1.892,149.593,7.509,203.143,14.073V697.494
		c-41.712-5.484-108.03-11.832-194.696-13.502C1284.474,681.543,1080.766,689.227,837.273,739.591z"/>
	<path fill="#FFFFFF" d="M837.273,61.944c-157.838,32.878-300.748,43.915-421.661,43.915c-93.083,0-173.084-6.552-236.675-14.735
		C105.621,81.68,45.688,69.225,0.5,57.728V200.14c84.606,26.095,363.657,94.739,752.137,13.965
		c273.349-56.96,505.167-64.708,651.453-61.176c79.968,1.894,149.593,7.511,203.143,14.075V19.847
		c-41.712-5.483-108.03-11.831-194.696-13.501C1284.474,3.896,1080.766,11.58,837.273,61.944z"/>
</g>
<g>
	<path fill="#FFFFFF" d="M837.273,931.583c-157.838,32.879-300.748,43.916-421.661,43.916c-93.083,0-173.084-6.552-236.675-14.735
		c-73.316-9.444-133.25-21.9-178.437-33.396v142.41c84.606,26.096,363.657,94.74,752.137,13.968
		c273.349-56.962,505.167-64.71,651.453-61.177c79.968,1.892,149.593,7.509,203.143,14.075V889.486
		c-41.712-5.484-108.03-11.833-194.696-13.501C1284.474,873.535,1080.766,881.219,837.273,931.583z"/>
	<path fill="#FFFFFF" d="M837.273,1054.599c-157.838,32.877-300.748,43.915-421.661,43.915c-93.083,0-173.084-6.551-236.675-14.734
		c-73.316-9.444-133.25-21.901-178.437-33.396v142.41c84.606,26.096,363.657,94.741,752.137,13.967
		c273.349-56.962,505.167-64.709,651.453-61.176c79.968,1.893,149.593,7.508,203.143,14.075v-147.157
		c-41.712-5.485-108.03-11.833-194.696-13.502C1284.474,996.551,1080.766,1004.234,837.273,1054.599z"/>
	<path fill="#FFFFFF" d="M837.273,1160.04c-157.838,32.879-300.748,43.916-421.661,43.916c-93.083,0-173.084-6.552-236.675-14.734
		c-73.316-9.444-133.25-21.9-178.437-33.396v142.41c84.606,26.096,363.657,94.739,752.137,13.967
		c273.349-56.962,505.167-64.71,651.453-61.177c79.968,1.893,149.593,7.509,203.143,14.075v-147.157
		c-41.712-5.484-108.03-11.833-194.696-13.502C1284.474,1101.993,1080.766,1109.677,837.273,1160.04z"/>
	<path fill="#FFFFFF" d="M837.273,1265.482c-157.838,32.878-300.748,43.915-421.661,43.915c-93.083,0-173.084-6.551-236.675-14.735
		c-73.316-9.443-133.25-21.899-178.437-33.396v142.411c84.606,26.096,363.657,94.74,752.137,13.968
		c273.349-56.964,505.167-64.71,651.453-61.177c79.968,1.892,149.593,7.509,203.143,14.073v-147.155
		c-41.712-5.484-108.03-11.832-194.696-13.502C1284.474,1207.435,1080.766,1215.117,837.273,1265.482z"/>
	<path fill="#FFFFFF" d="M837.273,1370.924c-157.838,32.878-300.748,43.916-421.661,43.916c-93.083,0-173.084-6.552-236.675-14.736
		c-73.316-9.443-133.25-21.9-178.437-33.396v142.411c84.606,26.096,363.657,94.74,752.137,13.968
		c273.349-56.963,505.167-64.71,651.453-61.177c79.968,1.892,149.593,7.51,203.143,14.074v-147.156
		c-41.712-5.484-108.03-11.832-194.696-13.502C1284.474,1312.875,1080.766,1320.559,837.273,1370.924z"/>
	<path fill="#FFFFFF" d="M837.273,1476.366c-157.838,32.877-300.748,43.914-421.661,43.914c-93.083,0-173.084-6.551-236.675-14.734
		c-73.316-9.443-133.25-21.9-178.437-33.396v142.411c84.606,26.095,363.657,94.739,752.137,13.967
		c273.349-56.963,505.167-64.711,651.453-61.178c79.968,1.894,149.593,7.511,203.143,14.076v-147.157
		c-41.712-5.484-108.03-11.831-194.696-13.502C1284.474,1418.318,1080.766,1426.002,837.273,1476.366z"/>
	<path fill="#FFFFFF" d="M837.273,798.72c-157.838,32.877-300.748,43.915-421.661,43.915c-93.083,0-173.084-6.552-236.675-14.735
		c-73.316-9.443-133.25-21.901-178.437-33.396v142.41c84.606,26.097,363.657,94.74,752.137,13.968
		c273.349-56.963,505.167-64.709,651.453-61.177c79.968,1.893,149.593,7.51,203.143,14.075V756.622
		c-41.712-5.484-108.03-11.831-194.696-13.502C1284.474,740.672,1080.766,748.354,837.273,798.72z"/>
</g>
<g>
	<path fill="#FFFFFF" d="M837.273,1439.944c-157.838,32.879-300.748,43.916-421.661,43.916c-93.083,0-173.084-6.552-236.675-14.735
		c-73.316-9.444-133.25-21.9-178.437-33.396v142.41c84.606,26.096,363.657,94.74,752.137,13.968
		c273.349-56.962,505.167-64.71,651.453-61.177c79.968,1.892,149.593,7.509,203.143,14.075v-147.157
		c-41.712-5.484-108.03-11.833-194.696-13.501C1284.474,1381.896,1080.766,1389.58,837.273,1439.944z"/>
	<path fill="#FFFFFF" d="M837.273,1562.96c-157.838,32.877-300.748,43.915-421.661,43.915c-93.083,0-173.084-6.551-236.675-14.734
		c-73.316-9.444-133.25-21.901-178.437-33.396v142.41c84.606,26.096,363.657,94.741,752.137,13.967
		c273.349-56.962,505.167-64.709,651.453-61.176c79.968,1.893,149.593,7.508,203.143,14.075v-147.157
		c-41.712-5.485-108.03-11.833-194.696-13.502C1284.474,1504.912,1080.766,1512.596,837.273,1562.96z"/>
	<path fill="#FFFFFF" d="M837.273,1668.401c-157.838,32.879-300.748,43.916-421.661,43.916c-93.083,0-173.084-6.552-236.675-14.734
		c-73.316-9.444-133.25-21.9-178.437-33.396v142.41c84.606,26.096,363.657,94.739,752.137,13.967
		c273.349-56.962,505.167-64.71,651.453-61.177c79.968,1.893,149.593,7.509,203.143,14.075v-147.157
		c-41.712-5.484-108.03-11.833-194.696-13.502C1284.474,1610.354,1080.766,1618.038,837.273,1668.401z"/>
	<path fill="#FFFFFF" d="M837.273,1773.844c-157.838,32.878-300.748,43.915-421.661,43.915c-93.083,0-173.084-6.551-236.675-14.735
		c-73.316-9.443-133.25-21.899-178.437-33.396v142.411c84.606,26.096,363.657,94.74,752.137,13.968
		c273.349-56.964,505.167-64.71,651.453-61.177c79.968,1.892,149.593,7.509,203.143,14.073v-147.155
		c-41.712-5.484-108.03-11.832-194.696-13.502C1284.474,1715.796,1080.766,1723.479,837.273,1773.844z"/>
	<path fill="#FFFFFF" d="M837.273,1879.285c-157.838,32.878-300.748,43.916-421.661,43.916c-93.083,0-173.084-6.552-236.675-14.736
		c-73.316-9.443-133.25-21.9-178.437-33.396v142.411c84.606,26.096,363.657,94.74,752.137,13.968
		c273.349-56.963,505.167-64.71,651.453-61.177c79.968,1.892,149.593,7.51,203.143,14.074v-147.156
		c-41.712-5.484-108.03-11.832-194.696-13.502C1284.474,1821.236,1080.766,1828.92,837.273,1879.285z"/>
	<path fill="#FFFFFF" d="M837.273,1984.728c-157.838,32.877-300.748,43.914-421.661,43.914c-93.083,0-173.084-6.551-236.675-14.734
		c-73.316-9.443-133.25-21.9-178.437-33.396v142.411c84.606,26.095,363.657,94.739,752.137,13.967
		c273.349-56.963,505.167-64.711,651.453-61.178c79.968,1.894,149.593,7.511,203.143,14.076V1942.63
		c-41.712-5.484-108.03-11.831-194.696-13.502C1284.474,1926.68,1080.766,1934.363,837.273,1984.728z"/>
	<path fill="#FFFFFF" d="M837.273,1307.081c-157.838,32.877-300.748,43.915-421.661,43.915c-93.083,0-173.084-6.552-236.675-14.735
		c-73.316-9.443-133.25-21.901-178.437-33.396v142.41c84.606,26.097,363.657,94.74,752.137,13.968
		c273.349-56.963,505.167-64.709,651.453-61.177c79.968,1.893,149.593,7.51,203.143,14.075v-147.157
		c-41.712-5.484-108.03-11.831-194.696-13.502C1284.474,1249.033,1080.766,1256.716,837.273,1307.081z"/>
</g>
</svg>
