<?xml version="1.0" encoding="utf-8"?>
<!-- Generator: Adobe Illustrator 16.0.0, SVG Export Plug-In . SVG Version: 6.00 Build 0)  -->
<!DOCTYPE svg PUBLIC "-//W3C//DTD SVG 1.1//EN" "http://www.w3.org/Graphics/SVG/1.1/DTD/svg11.dtd">
<svg version="1.1" id="Layer_1" xmlns="http://www.w3.org/2000/svg" xmlns:xlink="http://www.w3.org/1999/xlink" x="0px" y="0px"
	 width="1462.9px" height="1507.586px" viewBox="0 0 1462.9 1507.586" enable-background="new 0 0 1462.9 1507.586"
	 xml:space="preserve">
<g>
	<path fill="#FFFFFF" d="M760.709,177.527c-143.396,29.869-273.229,39.896-383.079,39.896c-84.566,0-157.247-5.95-215.02-13.387
		c-66.608-8.579-121.058-19.896-162.11-30.34v129.38c76.865,23.708,330.383,86.072,683.316,12.688
		c248.338-51.75,458.945-58.788,591.846-55.578c72.651,1.72,135.905,6.822,184.556,12.787V139.282
		c-37.896-4.981-98.146-10.748-176.882-12.267C1166.991,124.791,981.922,131.771,760.709,177.527z"/>
	<path fill="#FFFFFF" d="M760.709,289.288c-143.396,29.868-273.229,39.896-383.079,39.896c-84.566,0-157.247-5.951-215.02-13.386
		C96.002,307.218,41.553,295.9,0.5,285.457v129.379c76.865,23.709,330.383,86.072,683.316,12.689
		c248.338-51.75,458.945-58.788,591.846-55.579c72.651,1.721,135.905,6.823,184.556,12.788V251.041
		c-37.896-4.982-98.146-10.748-176.882-12.265C1166.991,236.551,981.922,243.531,760.709,289.288z"/>
	<path fill="#FFFFFF" d="M760.709,385.082C617.313,414.95,487.48,424.978,377.63,424.978c-84.566,0-157.247-5.95-215.02-13.386
		c-66.608-8.58-121.058-19.897-162.11-30.341v129.38c76.865,23.708,330.383,86.072,683.316,12.688
		c248.338-51.75,458.945-58.788,591.846-55.579c72.651,1.721,135.905,6.823,184.556,12.788V346.836
		c-37.896-4.983-98.146-10.75-176.882-12.266C1166.991,332.345,981.922,339.325,760.709,385.082z"/>
	<path fill="#FFFFFF" d="M760.709,480.876c-143.396,29.868-273.229,39.896-383.079,39.896c-84.566,0-157.247-5.951-215.02-13.386
		c-66.608-8.58-121.058-19.897-162.11-30.341v129.38c76.865,23.708,330.383,86.072,683.316,12.688
		c248.338-51.749,458.945-58.788,591.846-55.578c72.651,1.72,135.905,6.821,184.556,12.787V442.63
		c-37.896-4.982-98.146-10.75-176.882-12.266C1166.991,428.139,981.922,435.119,760.709,480.876z"/>
	<path fill="#FFFFFF" d="M760.709,576.669c-143.396,29.87-273.229,39.897-383.079,39.897c-84.566,0-157.247-5.952-215.02-13.388
		C96.002,594.6,41.553,583.283,0.5,572.838v129.381c76.865,23.708,330.383,86.071,683.316,12.689
		c248.338-51.75,458.945-58.789,591.846-55.579c72.651,1.719,135.905,6.821,184.556,12.787V538.424
		c-37.896-4.982-98.146-10.75-176.882-12.267C1166.991,523.933,981.922,530.913,760.709,576.669z"/>
	<path fill="#FFFFFF" d="M760.709,672.463C617.313,702.333,487.48,712.36,377.63,712.36c-84.566,0-157.247-5.952-215.02-13.388
		C96.002,690.394,41.553,679.077,0.5,668.632v129.381c76.865,23.708,330.383,86.071,683.316,12.689
		c248.338-51.75,458.945-58.789,591.846-55.579c72.651,1.719,135.905,6.822,184.556,12.786V634.218
		c-37.896-4.982-98.146-10.749-176.882-12.267C1166.991,619.727,981.922,626.707,760.709,672.463z"/>
	<path fill="#FFFFFF" d="M760.709,56.821C617.313,86.69,487.48,96.717,377.63,96.717c-84.566,0-157.247-5.952-215.02-13.387
		C96.002,74.75,41.553,63.435,0.5,52.99v129.381c76.865,23.707,330.383,86.07,683.316,12.688
		c248.338-51.749,458.945-58.787,591.846-55.579c72.651,1.721,135.905,6.824,184.556,12.787V18.575
		c-37.896-4.981-98.146-10.748-176.882-12.266C1166.991,4.083,981.922,11.064,760.709,56.821z"/>
</g>
<g>
	<path fill="#FFFFFF" d="M760.709,833.26c-143.396,29.87-273.229,39.897-383.079,39.897c-84.566,0-157.247-5.952-215.02-13.387
		C96.002,851.19,41.553,839.874,0.5,829.43v129.38c76.865,23.708,330.383,86.071,683.316,12.689
		c248.338-51.75,458.945-58.789,591.846-55.579c72.651,1.719,135.905,6.821,184.556,12.787V795.015
		c-37.896-4.982-98.146-10.75-176.882-12.266C1166.991,780.523,981.922,787.504,760.709,833.26z"/>
	<path fill="#FFFFFF" d="M760.709,945.02c-143.396,29.869-273.229,39.896-383.079,39.896c-84.566,0-157.247-5.951-215.02-13.386
		C96.002,962.95,41.553,951.633,0.5,941.189v129.38c76.865,23.708,330.383,86.072,683.316,12.688
		c248.338-51.75,458.945-58.788,591.846-55.578c72.651,1.72,135.905,6.821,184.556,12.787V906.774
		c-37.896-4.983-98.146-10.75-176.882-12.267C1166.991,892.283,981.922,899.264,760.709,945.02z"/>
	<path fill="#FFFFFF" d="M760.709,1040.813c-143.396,29.87-273.229,39.897-383.079,39.897c-84.566,0-157.247-5.952-215.02-13.387
		c-66.608-8.58-121.058-19.896-162.11-30.341v129.38c76.865,23.708,330.383,86.071,683.316,12.689
		c248.338-51.75,458.945-58.789,591.846-55.579c72.651,1.719,135.905,6.821,184.556,12.787v-133.692
		c-37.896-4.982-98.146-10.75-176.882-12.267C1166.991,988.077,981.922,995.058,760.709,1040.813z"/>
	<path fill="#FFFFFF" d="M760.709,1136.607c-143.396,29.87-273.229,39.897-383.079,39.897c-84.566,0-157.247-5.952-215.02-13.388
		c-66.608-8.579-121.058-19.896-162.11-30.341v129.381c76.865,23.708,330.383,86.071,683.316,12.689
		c248.338-51.751,458.945-58.789,591.846-55.579c72.651,1.719,135.905,6.822,184.556,12.786v-133.691
		c-37.896-4.982-98.146-10.749-176.882-12.267C1166.991,1083.871,981.922,1090.851,760.709,1136.607z"/>
	<path fill="#FFFFFF" d="M760.709,1232.401c-143.396,29.869-273.229,39.897-383.079,39.897c-84.566,0-157.247-5.952-215.02-13.388
		c-66.608-8.579-121.058-19.896-162.11-30.341v129.381c76.865,23.708,330.383,86.071,683.316,12.689
		c248.338-51.751,458.945-58.789,591.846-55.579c72.651,1.719,135.905,6.822,184.556,12.786v-133.691
		c-37.896-4.982-98.146-10.749-176.882-12.267C1166.991,1179.664,981.922,1186.645,760.709,1232.401z"/>
	<path fill="#FFFFFF" d="M760.709,1328.195c-143.396,29.869-273.229,39.896-383.079,39.896c-84.566,0-157.247-5.951-215.02-13.387
		c-66.608-8.579-121.058-19.896-162.11-30.341v129.381c76.865,23.707,330.383,86.071,683.316,12.689
		c248.338-51.751,458.945-58.79,591.846-55.58c72.651,1.72,135.905,6.823,184.556,12.788V1289.95
		c-37.896-4.982-98.146-10.749-176.882-12.267C1166.991,1275.459,981.922,1282.439,760.709,1328.195z"/>
	<path fill="#FFFFFF" d="M760.709,712.554C617.313,742.422,487.48,752.45,377.63,752.45c-84.566,0-157.247-5.952-215.02-13.387
		c-66.608-8.58-121.058-19.897-162.11-30.341v129.38c76.865,23.708,330.383,86.071,683.316,12.689
		c248.338-51.751,458.945-58.788,591.846-55.579c72.651,1.719,135.905,6.822,184.556,12.787V674.308
		c-37.896-4.982-98.146-10.749-176.882-12.267C1166.991,659.816,981.922,666.797,760.709,712.554z"/>
</g>
</svg>
